<?xml version="1.0" encoding="UTF-8"?>
<svg xmlns="http://www.w3.org/2000/svg" width="64" height="64" version="1.1" viewBox="0 0 64 64">
  <defs>
    <style>
      .cls-1 {
        fill: none;
        stroke: #e40076;
        stroke-miterlimit: 10;
        stroke-width: 3px;
      }

      .cls-2 {
        fill: #8bc53f;
      }
    </style>
  </defs>
  <!-- Generator: Adobe Illustrator 28.7.1, SVG Export Plug-In . SVG Version: 1.2.0 Build 142)  -->
  <g>
    <g id="Layer_1">
      <circle class="cls-1" cx="32" cy="32" r="29"/>
      <path class="cls-2" d="M28.8,21.1c0,.4,0,.8-.2,1.1-.1.4-.3.7-.6.9-.3.3-.5.5-.9.6-.3.2-.7.2-1.1.2-.9,0-1.6-.2-2.1-.7-.5-.5-.8-1.2-.8-2h1.5c0,.4.2.7.4.9.2.2.5.3,1,.3s.4,0,.5-.1c.2,0,.3-.2.4-.3.1-.1.2-.3.3-.4s.1-.3.1-.5,0-.4-.1-.5c0-.2-.2-.3-.3-.4-.1-.1-.3-.2-.4-.3-.2,0-.3-.1-.5-.1h-1v-1.6h1c.2,0,.3,0,.4-.1.1,0,.2-.2.3-.3,0-.1.1-.2.2-.4s0-.3,0-.4c0-.3,0-.5-.3-.7-.2-.2-.4-.3-.7-.3s-.3,0-.5,0c-.1,0-.2.1-.3.2,0,0-.1.2-.2.3,0,.1,0,.3-.1.4h-1.5c0-.4.1-.7.2-1s.3-.6.5-.8c.2-.2.5-.4.8-.6.3-.1.6-.2,1-.2s.7,0,1,.2c.3.1.6.3.8.6.2.2.4.5.5.8.1.3.2.6.2,1s0,.6-.1.9c-.1.3-.3.6-.5.9.7.6,1,1.4,1,2.2Z"/>
      <path class="cls-2" d="M32.5,23.9h-1.6v-7.7h-1v-1.6h2.6v9.2Z"/>
      <path class="cls-2" d="M40.9,19.2c0,.3,0,.7,0,1,0,.4-.1.7-.2,1.1-.1.4-.2.7-.4,1-.2.3-.4.6-.6.9s-.5.5-.8.6c-.3.2-.6.2-1,.2s-.7,0-1-.2-.6-.4-.8-.6c-.2-.3-.4-.5-.6-.9-.2-.3-.3-.7-.4-1-.1-.4-.2-.7-.2-1.1,0-.4,0-.7,0-1s0-.7,0-1c0-.4.1-.7.2-1s.2-.7.4-1c.2-.3.4-.6.6-.8.2-.2.5-.4.8-.6.3-.1.6-.2,1-.2s.7,0,1,.2c.3.1.6.3.8.6s.4.5.6.8c.2.3.3.6.4,1s.2.7.2,1c0,.4,0,.7,0,1ZM39.3,19.2c0-.2,0-.5,0-.9,0-.3-.1-.7-.2-1-.1-.3-.3-.6-.5-.8-.2-.2-.5-.3-.8-.3s-.6.1-.8.3c-.2.2-.4.5-.5.8-.1.3-.2.6-.2,1,0,.3,0,.6,0,.9s0,.3,0,.6c0,.2,0,.4,0,.7,0,.2,0,.5.2.7,0,.2.2.4.3.6.1.2.3.3.4.5.2.1.4.2.6.2s.4,0,.6-.2c.2-.1.3-.3.4-.4.1-.2.2-.4.3-.6,0-.2.1-.5.2-.7,0-.2,0-.5,0-.7,0-.2,0-.4,0-.6Z"/>
      <path class="cls-2" d="M17.8,33.3c0,.4,0,.8-.3,1.1-.2.3-.4.6-.7.8-.3.2-.6.4-1,.5-.4.1-.8.2-1.2.2-.7,0-1.2-.2-1.7-.6s-.8-.9-1-1.5l1.3-.6c.1.3.3.6.5.7s.4.3.6.4c.2,0,.4,0,.7,0,.2,0,.4-.1.6-.2.2-.1.3-.2.4-.4.1-.2.2-.3.2-.5s0-.5-.3-.6-.4-.3-.7-.5c-.3-.2-.6-.3-.9-.5-.3-.2-.6-.3-.9-.6-.3-.2-.5-.5-.7-.8-.2-.3-.3-.7-.3-1.2s0-.7.2-1c.1-.3.3-.6.6-.9s.5-.4.8-.6c.3-.1.7-.2,1-.2.6,0,1.1.1,1.5.4.4.3.8.7,1,1.2l-1.4.6c-.2-.3-.4-.5-.6-.7-.3-.1-.5-.1-.8,0-.2,0-.5.2-.6.4-.2.2-.3.5-.3.8s0,.4.3.6c.2.2.4.3.7.5.3.1.6.3.9.5.3.2.6.4.9.6.3.2.5.5.7.8s.3.7.3,1.2Z"/>
      <path class="cls-2" d="M28.2,35.9h-1.6v-4.8l-2.8,3.7-2.8-3.7v4.8h-1.6v-9.6l4.4,6,4.4-6v9.6Z"/>
      <path class="cls-2" d="M37.8,35.9h-1.7l-.7-1.6h-3.6l-.7,1.6h-1.7l4.2-9.6,4.2,9.6ZM34.7,32.8l-1.1-2.6-1.1,2.6h2.3Z"/>
      <path class="cls-2" d="M45.4,35.9h-1.8l-1.9-3.8h-1.1v3.8h-1.6v-9.2h3.6c.4,0,.7,0,1,.2.3.1.6.3.9.6.2.2.4.5.6.9.1.3.2.7.2,1s0,.6-.1.9-.2.5-.4.8c-.2.2-.4.4-.6.6s-.5.3-.8.4l2.1,3.9ZM43.8,29.4c0-.2,0-.3,0-.4,0-.1-.1-.3-.2-.4-.1-.1-.2-.2-.4-.2-.1,0-.3,0-.4,0h-2.1v2.3h2.1c.2,0,.3,0,.4,0,.1,0,.3-.1.4-.2.1-.1.2-.2.2-.4,0-.1,0-.3,0-.4Z"/>
      <path class="cls-2" d="M52.1,28.2h-2.4v7.7h-1.6v-7.7h-2.4v-1.6h6.3v1.6Z"/>
      <path class="cls-2" d="M24.7,47.9h-1.6v-9.2h1.6v9.2Z"/>
      <path class="cls-2" d="M34.3,38.7l-4.2,9.6-4.2-9.6h1.7l2.5,5.7,2.5-5.7h1.7Z"/>
      <path class="cls-2" d="M41.9,47.9h-1.8l-1.9-3.8h-1.1v3.8h-1.6v-9.2h3.6c.4,0,.7,0,1,.2.3.1.6.3.9.6s.4.5.6.9.2.7.2,1,0,.6-.1.9c0,.3-.2.5-.4.8-.2.2-.4.4-.6.6s-.5.3-.8.4l2.1,3.9ZM40.2,41.4c0-.2,0-.3,0-.4,0-.1-.1-.3-.2-.4s-.2-.2-.4-.2c-.1,0-.3,0-.4,0h-2.1v2.3h2.1c.2,0,.3,0,.4,0,.1,0,.3-.1.4-.2s.2-.2.2-.4c0-.1,0-.3,0-.4Z"/>
    </g>
  </g>
</svg>